<mxfile host="Electron" modified="2024-02-16T20:59:36.904Z" agent="Mozilla/5.0 (Windows NT 10.0; Win64; x64) AppleWebKit/537.36 (KHTML, like Gecko) draw.io/23.0.2 Chrome/120.0.6099.109 Electron/28.1.0 Safari/537.36" etag="BlqNTUcIAJ7yDFdUx7Rw" version="23.0.2" type="device">
  <diagram name="Page-1" id="krlLLVuHp6nMf8_PuCLu">
    <mxGraphModel dx="1363" dy="950" grid="1" gridSize="10" guides="1" tooltips="1" connect="1" arrows="1" fold="1" page="1" pageScale="1" pageWidth="850" pageHeight="1100" math="0" shadow="0">
      <root>
        <mxCell id="0" />
        <mxCell id="1" parent="0" />
        <mxCell id="wE5hzmVtrxH4fMtxzaI--26" style="edgeStyle=orthogonalEdgeStyle;rounded=0;orthogonalLoop=1;jettySize=auto;html=1;entryX=0.5;entryY=0;entryDx=0;entryDy=0;fontFamily=GOST Type B;fontStyle=2" edge="1" parent="1" source="wE5hzmVtrxH4fMtxzaI--2" target="wE5hzmVtrxH4fMtxzaI--23">
          <mxGeometry relative="1" as="geometry" />
        </mxCell>
        <mxCell id="wE5hzmVtrxH4fMtxzaI--2" value="Начало" style="rounded=1;whiteSpace=wrap;html=1;arcSize=50;fontFamily=GOST Type B;fontStyle=2;fontSize=32;" vertex="1" parent="1">
          <mxGeometry x="355" y="60" width="140" height="70" as="geometry" />
        </mxCell>
        <mxCell id="wE5hzmVtrxH4fMtxzaI--12" style="edgeStyle=orthogonalEdgeStyle;rounded=0;orthogonalLoop=1;jettySize=auto;html=1;fontFamily=GOST Type B;fontStyle=2" edge="1" parent="1" source="wE5hzmVtrxH4fMtxzaI--3" target="wE5hzmVtrxH4fMtxzaI--4">
          <mxGeometry relative="1" as="geometry" />
        </mxCell>
        <mxCell id="wE5hzmVtrxH4fMtxzaI--3" value="Получение указанной последовательности тестов" style="rounded=0;whiteSpace=wrap;html=1;fontFamily=GOST Type B;fontStyle=2;fontSize=13;" vertex="1" parent="1">
          <mxGeometry x="365" y="230" width="120" height="60" as="geometry" />
        </mxCell>
        <mxCell id="wE5hzmVtrxH4fMtxzaI--13" style="edgeStyle=orthogonalEdgeStyle;rounded=0;orthogonalLoop=1;jettySize=auto;html=1;fontFamily=GOST Type B;fontStyle=2" edge="1" parent="1" source="wE5hzmVtrxH4fMtxzaI--4" target="wE5hzmVtrxH4fMtxzaI--5">
          <mxGeometry relative="1" as="geometry" />
        </mxCell>
        <mxCell id="wE5hzmVtrxH4fMtxzaI--4" value="Чтение конфигурации тестов" style="rounded=0;whiteSpace=wrap;html=1;fontFamily=GOST Type B;fontStyle=2;fontSize=16;" vertex="1" parent="1">
          <mxGeometry x="365" y="310" width="120" height="60" as="geometry" />
        </mxCell>
        <mxCell id="wE5hzmVtrxH4fMtxzaI--14" style="edgeStyle=orthogonalEdgeStyle;rounded=0;orthogonalLoop=1;jettySize=auto;html=1;fontFamily=GOST Type B;fontStyle=2" edge="1" parent="1" source="wE5hzmVtrxH4fMtxzaI--5" target="wE5hzmVtrxH4fMtxzaI--6">
          <mxGeometry relative="1" as="geometry" />
        </mxCell>
        <mxCell id="wE5hzmVtrxH4fMtxzaI--42" style="edgeStyle=orthogonalEdgeStyle;rounded=0;orthogonalLoop=1;jettySize=auto;html=1;fontFamily=GOST Type B;fontStyle=2;entryX=0.5;entryY=0;entryDx=0;entryDy=0;" edge="1" parent="1" source="wE5hzmVtrxH4fMtxzaI--5" target="wE5hzmVtrxH4fMtxzaI--51">
          <mxGeometry relative="1" as="geometry">
            <mxPoint x="420" y="860" as="targetPoint" />
            <Array as="points">
              <mxPoint x="560" y="430" />
              <mxPoint x="560" y="840" />
              <mxPoint x="425" y="840" />
            </Array>
          </mxGeometry>
        </mxCell>
        <mxCell id="wE5hzmVtrxH4fMtxzaI--5" value="for i = 0 to n&lt;br style=&quot;font-size: 14px;&quot;&gt;n - количество повторений последовательности" style="shape=hexagon;perimeter=hexagonPerimeter2;whiteSpace=wrap;html=1;fixedSize=1;fontFamily=GOST Type B;fontStyle=2;fontSize=14;" vertex="1" parent="1">
          <mxGeometry x="343" y="390" width="165" height="80" as="geometry" />
        </mxCell>
        <mxCell id="wE5hzmVtrxH4fMtxzaI--15" style="edgeStyle=orthogonalEdgeStyle;rounded=0;orthogonalLoop=1;jettySize=auto;html=1;fontFamily=GOST Type B;fontStyle=2" edge="1" parent="1" source="wE5hzmVtrxH4fMtxzaI--6" target="wE5hzmVtrxH4fMtxzaI--7">
          <mxGeometry relative="1" as="geometry" />
        </mxCell>
        <mxCell id="wE5hzmVtrxH4fMtxzaI--20" style="edgeStyle=orthogonalEdgeStyle;rounded=0;orthogonalLoop=1;jettySize=auto;html=1;entryX=0;entryY=0.5;entryDx=0;entryDy=0;fontFamily=GOST Type B;fontStyle=2" edge="1" parent="1" source="wE5hzmVtrxH4fMtxzaI--6" target="wE5hzmVtrxH4fMtxzaI--5">
          <mxGeometry relative="1" as="geometry">
            <Array as="points">
              <mxPoint x="540" y="530" />
              <mxPoint x="540" y="820" />
              <mxPoint x="280" y="820" />
              <mxPoint x="280" y="430" />
            </Array>
          </mxGeometry>
        </mxCell>
        <mxCell id="wE5hzmVtrxH4fMtxzaI--6" value="for j = 0 to m&lt;br style=&quot;font-size: 15px;&quot;&gt;m - количество языков программирования в последовательности" style="shape=hexagon;perimeter=hexagonPerimeter2;whiteSpace=wrap;html=1;fixedSize=1;fontFamily=GOST Type B;fontStyle=2;fontSize=15;" vertex="1" parent="1">
          <mxGeometry x="343" y="490" width="165" height="80" as="geometry" />
        </mxCell>
        <mxCell id="wE5hzmVtrxH4fMtxzaI--16" style="edgeStyle=orthogonalEdgeStyle;rounded=0;orthogonalLoop=1;jettySize=auto;html=1;fontFamily=GOST Type B;fontStyle=2" edge="1" parent="1" source="wE5hzmVtrxH4fMtxzaI--7" target="wE5hzmVtrxH4fMtxzaI--10">
          <mxGeometry relative="1" as="geometry" />
        </mxCell>
        <mxCell id="wE5hzmVtrxH4fMtxzaI--19" style="edgeStyle=orthogonalEdgeStyle;rounded=0;orthogonalLoop=1;jettySize=auto;html=1;entryX=0;entryY=0.5;entryDx=0;entryDy=0;fontFamily=GOST Type B;fontStyle=2" edge="1" parent="1" source="wE5hzmVtrxH4fMtxzaI--7" target="wE5hzmVtrxH4fMtxzaI--6">
          <mxGeometry relative="1" as="geometry">
            <Array as="points">
              <mxPoint x="520" y="630" />
              <mxPoint x="520" y="800" />
              <mxPoint x="300" y="800" />
              <mxPoint x="300" y="530" />
            </Array>
          </mxGeometry>
        </mxCell>
        <mxCell id="wE5hzmVtrxH4fMtxzaI--7" value="for k = 0 to l&lt;br style=&quot;font-size: 15px;&quot;&gt;l - количество тестов для данного языка программирования" style="shape=hexagon;perimeter=hexagonPerimeter2;whiteSpace=wrap;html=1;fixedSize=1;fontFamily=GOST Type B;fontStyle=2;fontSize=15;" vertex="1" parent="1">
          <mxGeometry x="343.5" y="590" width="165" height="80" as="geometry" />
        </mxCell>
        <mxCell id="wE5hzmVtrxH4fMtxzaI--17" style="edgeStyle=orthogonalEdgeStyle;rounded=0;orthogonalLoop=1;jettySize=auto;html=1;entryX=0;entryY=0.5;entryDx=0;entryDy=0;fontFamily=GOST Type B;fontStyle=2" edge="1" parent="1" source="wE5hzmVtrxH4fMtxzaI--10" target="wE5hzmVtrxH4fMtxzaI--7">
          <mxGeometry relative="1" as="geometry">
            <Array as="points">
              <mxPoint x="426" y="780" />
              <mxPoint x="324" y="780" />
              <mxPoint x="324" y="630" />
            </Array>
          </mxGeometry>
        </mxCell>
        <mxCell id="wE5hzmVtrxH4fMtxzaI--10" value="Выполнение теста" style="shape=process;whiteSpace=wrap;html=1;backgroundOutline=1;fontFamily=GOST Type B;fontStyle=2;fontSize=18;" vertex="1" parent="1">
          <mxGeometry x="366" y="690" width="120" height="60" as="geometry" />
        </mxCell>
        <mxCell id="wE5hzmVtrxH4fMtxzaI--34" style="edgeStyle=orthogonalEdgeStyle;rounded=0;orthogonalLoop=1;jettySize=auto;html=1;entryX=0.5;entryY=0;entryDx=0;entryDy=0;fontFamily=GOST Type B;fontStyle=2" edge="1" parent="1" source="wE5hzmVtrxH4fMtxzaI--21" target="wE5hzmVtrxH4fMtxzaI--22">
          <mxGeometry relative="1" as="geometry" />
        </mxCell>
        <mxCell id="wE5hzmVtrxH4fMtxzaI--21" value="Выполнение теста&lt;br style=&quot;font-size: 16px;&quot;&gt;Начало" style="rounded=1;whiteSpace=wrap;html=1;arcSize=50;fontFamily=GOST Type B;fontStyle=2;fontSize=16;" vertex="1" parent="1">
          <mxGeometry x="870" y="240" width="140" height="70" as="geometry" />
        </mxCell>
        <mxCell id="wE5hzmVtrxH4fMtxzaI--35" style="edgeStyle=orthogonalEdgeStyle;rounded=0;orthogonalLoop=1;jettySize=auto;html=1;fontFamily=GOST Type B;fontStyle=2" edge="1" parent="1" source="wE5hzmVtrxH4fMtxzaI--22" target="wE5hzmVtrxH4fMtxzaI--30">
          <mxGeometry relative="1" as="geometry" />
        </mxCell>
        <mxCell id="wE5hzmVtrxH4fMtxzaI--22" value="Выполнение команды запуска теста" style="rounded=0;whiteSpace=wrap;html=1;fontFamily=GOST Type B;fontStyle=2;fontSize=16;" vertex="1" parent="1">
          <mxGeometry x="880" y="330" width="120" height="60" as="geometry" />
        </mxCell>
        <mxCell id="wE5hzmVtrxH4fMtxzaI--29" style="edgeStyle=orthogonalEdgeStyle;rounded=0;orthogonalLoop=1;jettySize=auto;html=1;entryX=0.5;entryY=0;entryDx=0;entryDy=0;fontFamily=GOST Type B;fontStyle=2" edge="1" parent="1" source="wE5hzmVtrxH4fMtxzaI--23" target="wE5hzmVtrxH4fMtxzaI--3">
          <mxGeometry relative="1" as="geometry" />
        </mxCell>
        <mxCell id="wE5hzmVtrxH4fMtxzaI--23" value="&lt;font style=&quot;font-size: 13px;&quot;&gt;Запуск Docker контейнера с окружением для тестов&lt;/font&gt;" style="rounded=0;whiteSpace=wrap;html=1;fontFamily=GOST Type B;fontStyle=2" vertex="1" parent="1">
          <mxGeometry x="365" y="150" width="120" height="60" as="geometry" />
        </mxCell>
        <mxCell id="wE5hzmVtrxH4fMtxzaI--36" style="edgeStyle=orthogonalEdgeStyle;rounded=0;orthogonalLoop=1;jettySize=auto;html=1;entryX=0.5;entryY=0;entryDx=0;entryDy=0;fontFamily=GOST Type B;fontStyle=2" edge="1" parent="1" source="wE5hzmVtrxH4fMtxzaI--30" target="wE5hzmVtrxH4fMtxzaI--31">
          <mxGeometry relative="1" as="geometry" />
        </mxCell>
        <mxCell id="wE5hzmVtrxH4fMtxzaI--30" value="Запуск утилиты time" style="rounded=0;whiteSpace=wrap;html=1;fontFamily=GOST Type B;fontStyle=2;fontSize=19;" vertex="1" parent="1">
          <mxGeometry x="880" y="410" width="120" height="60" as="geometry" />
        </mxCell>
        <mxCell id="wE5hzmVtrxH4fMtxzaI--37" style="edgeStyle=orthogonalEdgeStyle;rounded=0;orthogonalLoop=1;jettySize=auto;html=1;entryX=0.5;entryY=0;entryDx=0;entryDy=0;fontFamily=GOST Type B;fontStyle=2" edge="1" parent="1" source="wE5hzmVtrxH4fMtxzaI--31" target="wE5hzmVtrxH4fMtxzaI--32">
          <mxGeometry relative="1" as="geometry" />
        </mxCell>
        <mxCell id="wE5hzmVtrxH4fMtxzaI--31" value="Обработка результатов выполнения" style="rounded=0;whiteSpace=wrap;html=1;fontFamily=GOST Type B;fontStyle=2;fontSize=16;" vertex="1" parent="1">
          <mxGeometry x="880" y="490" width="120" height="60" as="geometry" />
        </mxCell>
        <mxCell id="wE5hzmVtrxH4fMtxzaI--39" style="edgeStyle=orthogonalEdgeStyle;rounded=0;orthogonalLoop=1;jettySize=auto;html=1;fontFamily=GOST Type B;fontStyle=2" edge="1" parent="1" source="wE5hzmVtrxH4fMtxzaI--32" target="wE5hzmVtrxH4fMtxzaI--33">
          <mxGeometry relative="1" as="geometry" />
        </mxCell>
        <mxCell id="wE5hzmVtrxH4fMtxzaI--32" value="Сохранение результатов" style="rounded=0;whiteSpace=wrap;html=1;fontFamily=GOST Type B;fontStyle=2;fontSize=18;" vertex="1" parent="1">
          <mxGeometry x="880" y="570" width="120" height="60" as="geometry" />
        </mxCell>
        <mxCell id="wE5hzmVtrxH4fMtxzaI--33" value="Выполнение теста&lt;br style=&quot;font-size: 16px;&quot;&gt;Конец" style="rounded=1;whiteSpace=wrap;html=1;arcSize=50;fontFamily=GOST Type B;fontStyle=2;fontSize=16;" vertex="1" parent="1">
          <mxGeometry x="870" y="650" width="140" height="70" as="geometry" />
        </mxCell>
        <mxCell id="wE5hzmVtrxH4fMtxzaI--44" style="edgeStyle=orthogonalEdgeStyle;rounded=0;orthogonalLoop=1;jettySize=auto;html=1;entryX=0.5;entryY=0;entryDx=0;entryDy=0;fontFamily=GOST Type B;fontStyle=2" edge="1" parent="1" source="wE5hzmVtrxH4fMtxzaI--41" target="wE5hzmVtrxH4fMtxzaI--43">
          <mxGeometry relative="1" as="geometry" />
        </mxCell>
        <mxCell id="wE5hzmVtrxH4fMtxzaI--48" style="edgeStyle=orthogonalEdgeStyle;rounded=0;orthogonalLoop=1;jettySize=auto;html=1;fontFamily=GOST Type B;fontStyle=2" edge="1" parent="1" source="wE5hzmVtrxH4fMtxzaI--41">
          <mxGeometry relative="1" as="geometry">
            <mxPoint x="680" y="540" as="targetPoint" />
            <Array as="points">
              <mxPoint x="834.5" y="400" />
              <mxPoint x="834.5" y="540" />
            </Array>
          </mxGeometry>
        </mxCell>
        <mxCell id="wE5hzmVtrxH4fMtxzaI--41" value="Построить график&lt;br style=&quot;font-size: 13px;&quot;&gt;сравнения?" style="rhombus;whiteSpace=wrap;html=1;fontFamily=GOST Type B;fontStyle=2;fontSize=13;" vertex="1" parent="1">
          <mxGeometry x="600" y="360" width="160" height="80" as="geometry" />
        </mxCell>
        <mxCell id="wE5hzmVtrxH4fMtxzaI--46" style="edgeStyle=orthogonalEdgeStyle;rounded=0;orthogonalLoop=1;jettySize=auto;html=1;entryX=0.5;entryY=0;entryDx=0;entryDy=0;fontFamily=GOST Type B;fontStyle=2" edge="1" parent="1" source="wE5hzmVtrxH4fMtxzaI--43" target="wE5hzmVtrxH4fMtxzaI--45">
          <mxGeometry relative="1" as="geometry" />
        </mxCell>
        <mxCell id="wE5hzmVtrxH4fMtxzaI--43" value="Построение графика сравнения результатов тестов" style="rounded=0;whiteSpace=wrap;html=1;fontFamily=GOST Type B;fontStyle=2;fontSize=14;" vertex="1" parent="1">
          <mxGeometry x="614.5" y="460" width="130" height="60" as="geometry" />
        </mxCell>
        <mxCell id="wE5hzmVtrxH4fMtxzaI--45" value="Конец" style="rounded=1;whiteSpace=wrap;html=1;arcSize=50;fontFamily=GOST Type B;fontStyle=2;fontSize=32;" vertex="1" parent="1">
          <mxGeometry x="609.5" y="560" width="140" height="70" as="geometry" />
        </mxCell>
        <mxCell id="wE5hzmVtrxH4fMtxzaI--49" value="нет&lt;br style=&quot;font-size: 14px;&quot;&gt;" style="text;html=1;align=center;verticalAlign=middle;resizable=0;points=[];autosize=1;strokeColor=none;fillColor=none;fontFamily=GOST Type B;fontStyle=2;fontSize=14;" vertex="1" parent="1">
          <mxGeometry x="744.5" y="370" width="50" height="30" as="geometry" />
        </mxCell>
        <mxCell id="wE5hzmVtrxH4fMtxzaI--50" value="да" style="text;html=1;align=center;verticalAlign=middle;resizable=0;points=[];autosize=1;strokeColor=none;fillColor=none;fontFamily=GOST Type B;fontStyle=2;fontSize=14;" vertex="1" parent="1">
          <mxGeometry x="674.5" y="430" width="40" height="30" as="geometry" />
        </mxCell>
        <mxCell id="wE5hzmVtrxH4fMtxzaI--51" value="&lt;font size=&quot;1&quot; face=&quot;GOST Type B&quot;&gt;&lt;i style=&quot;font-size: 32px;&quot;&gt;А&lt;/i&gt;&lt;/font&gt;" style="ellipse;whiteSpace=wrap;html=1;aspect=fixed;" vertex="1" parent="1">
          <mxGeometry x="400" y="860" width="50" height="50" as="geometry" />
        </mxCell>
        <mxCell id="wE5hzmVtrxH4fMtxzaI--54" style="edgeStyle=orthogonalEdgeStyle;rounded=0;orthogonalLoop=1;jettySize=auto;html=1;entryX=0.5;entryY=0;entryDx=0;entryDy=0;" edge="1" parent="1" source="wE5hzmVtrxH4fMtxzaI--53" target="wE5hzmVtrxH4fMtxzaI--41">
          <mxGeometry relative="1" as="geometry" />
        </mxCell>
        <mxCell id="wE5hzmVtrxH4fMtxzaI--53" value="&lt;font size=&quot;1&quot; face=&quot;GOST Type B&quot;&gt;&lt;i style=&quot;font-size: 32px;&quot;&gt;А&lt;/i&gt;&lt;/font&gt;" style="ellipse;whiteSpace=wrap;html=1;aspect=fixed;" vertex="1" parent="1">
          <mxGeometry x="654.5" y="290" width="50" height="50" as="geometry" />
        </mxCell>
      </root>
    </mxGraphModel>
  </diagram>
</mxfile>
